<?xml version="1.0" encoding="UTF-8" standalone="no"?>
<svg
   xmlns:dc="http://purl.org/dc/elements/1.1/"
   xmlns:cc="http://creativecommons.org/ns#"
   xmlns:rdf="http://www.w3.org/1999/02/22-rdf-syntax-ns#"
   xmlns:svg="http://www.w3.org/2000/svg"
   xmlns="http://www.w3.org/2000/svg"
   id="Svg"
   width="64"
   height="64"
   version="1.1">
  <metadata
     id="metadata2947">
    <rdf:RDF>
      <cc:Work
         rdf:about="">
        <dc:format>image/svg+xml</dc:format>
        <dc:type
           rdf:resource="http://purl.org/dc/dcmitype/StillImage" />
      </cc:Work>
    </rdf:RDF>
  </metadata>
  <defs
     id="defs3" />
  <rect
     style="fill:#ffffc7;fill-opacity:1;stroke:none"
     id="rect8566"
     y="0"
     x="0"
     rx="0"
     height="10"
     width="64" />
  <path
     id="path15977"
     d="M 4.9648438 0 L 4.9511719 0.076171875 L 5.1601562 0.28710938 L 5.4140625 0.203125 L 5.5253906 0.01171875 L 5.5214844 0 L 4.9648438 0 z M 31.984375 0 L 31.957031 0.0390625 L 31.892578 0.21679688 L 31.998047 0.49609375 L 32.25 0.48828125 L 32.457031 0.31054688 L 32.501953 0.12109375 L 32.349609 0 L 31.984375 0 z M 41.003906 0 L 41.195312 0.11328125 L 41.460938 0.03515625 L 41.478516 0 L 41.003906 0 z M 43.09375 0 L 43.001953 0.07421875 L 42.980469 0.34960938 L 43.148438 0.5234375 L 43.375 0.63085938 L 43.548828 0.38867188 L 43.455078 0.23242188 L 43.435547 0.001953125 L 43.429688 0 L 43.09375 0 z M 0.5546875 0.26171875 L 0.15039062 0.35546875 L 0.11914062 0.74804688 L 0.47460938 0.8984375 L 0.7734375 0.6015625 L 0.5546875 0.26171875 z M 37.699219 0.32421875 L 37.490234 0.65625 L 37.734375 0.95507812 L 38.136719 0.83203125 L 38.101562 0.4296875 L 37.699219 0.32421875 z M 26.216797 0.35351562 L 26.056641 0.46679688 L 26.09375 0.6640625 L 26.228516 0.93359375 L 26.410156 0.88867188 L 26.576172 0.79882812 L 26.683594 0.51953125 L 26.490234 0.359375 L 26.216797 0.35351562 z M 53.306641 0.5234375 L 53.134766 0.69921875 L 53.097656 0.91992188 L 53.306641 1.1308594 L 53.560547 1.046875 L 53.671875 0.85546875 L 53.589844 0.578125 L 53.306641 0.5234375 z M 19.884766 0.609375 L 19.664062 0.96875 L 19.957031 1.2460938 L 20.328125 1.0585938 L 20.265625 0.66992188 L 19.884766 0.609375 z M 51.630859 0.61132812 L 51.462891 0.68359375 L 51.234375 0.67773438 L 51.119141 0.90234375 L 51.251953 1.1152344 L 51.521484 1.171875 L 51.716797 1.0234375 L 51.849609 0.81445312 L 51.630859 0.61132812 z M 57.623047 0.640625 L 57.390625 0.71679688 L 57.253906 0.89453125 L 57.341797 1.1796875 L 57.605469 1.2226562 L 57.792969 1.1035156 L 57.847656 0.8203125 L 57.623047 0.640625 z M 47.21875 0.66210938 L 46.962891 0.73632812 L 46.869141 0.91992188 L 46.863281 1.1132812 L 47.060547 1.2421875 L 47.322266 1.2558594 L 47.423828 1.0039062 L 47.376953 0.8046875 L 47.21875 0.66210938 z M 10.912109 0.67382812 L 10.740234 0.78710938 L 10.664062 0.98632812 L 10.824219 1.1992188 L 11.029297 1.2226562 L 11.210938 1.1582031 L 11.263672 0.9296875 L 11.183594 0.67773438 L 10.912109 0.67382812 z M 35.673828 0.67578125 L 35.269531 0.76367188 L 35.119141 1.1191406 L 35.382812 1.4003906 L 35.714844 1.34375 L 35.894531 1.0351562 L 35.673828 0.67578125 z M 24.167969 0.72851562 L 24.009766 0.95117188 L 24.007812 1.1542969 L 24.126953 1.3320312 L 24.394531 1.3203125 L 24.527344 1.1640625 L 24.580078 0.97851562 L 24.419922 0.80664062 L 24.167969 0.72851562 z M 16.990234 0.83398438 L 16.585938 0.921875 L 16.433594 1.2773438 L 16.699219 1.5585938 L 17.03125 1.5019531 L 17.210938 1.1933594 L 16.990234 0.83398438 z M 22.302734 0.875 L 22.03125 0.99609375 L 22.019531 1.2636719 L 22.158203 1.4355469 L 22.447266 1.4570312 L 22.599609 1.2128906 L 22.496094 0.98828125 L 22.302734 0.875 z M 59.673828 0.94335938 L 59.447266 1.1347656 L 59.5 1.3105469 L 59.464844 1.5371094 L 59.673828 1.6777344 L 59.902344 1.5722656 L 59.990234 1.3105469 L 59.867188 1.0996094 L 59.673828 0.94335938 z M 8.5253906 0.96484375 L 8.1679688 1.1132812 L 8.1035156 1.4433594 L 8.328125 1.7207031 L 8.7421875 1.6425781 L 8.8046875 1.234375 L 8.5253906 0.96484375 z M 62.603516 1.109375 L 62.337891 1.1289062 L 62.185547 1.2890625 L 62.199219 1.578125 L 62.458984 1.6992188 L 62.667969 1.5703125 L 62.757812 1.3632812 L 62.603516 1.109375 z M 49.216797 1.1503906 L 48.994141 1.2460938 L 48.814453 1.4199219 L 48.978516 1.6679688 L 49.158203 1.6367188 L 49.380859 1.6992188 L 49.544922 1.5078125 L 49.466797 1.2695312 L 49.216797 1.1503906 z M 3.0976562 1.15625 L 2.6777344 1.1777344 L 2.6152344 1.578125 L 2.9804688 1.7753906 L 3.2636719 1.5039062 L 3.0976562 1.15625 z M 13.597656 1.1738281 L 13.490234 1.3261719 L 13.425781 1.5058594 L 13.53125 1.7851562 L 13.783203 1.7773438 L 13.990234 1.5996094 L 14.033203 1.4082031 L 13.876953 1.2851562 L 13.597656 1.1738281 z M 28.470703 1.2949219 L 28.224609 1.34375 L 28.076172 1.5761719 L 28.144531 1.8105469 L 28.292969 2.0097656 L 28.560547 1.8769531 L 28.552734 1.6953125 L 28.640625 1.4824219 L 28.470703 1.2949219 z M 55.8125 1.34375 L 55.646484 1.4160156 L 55.416016 1.4082031 L 55.302734 1.6347656 L 55.433594 1.8476562 L 55.705078 1.9023438 L 55.898438 1.7558594 L 56.03125 1.546875 L 55.8125 1.34375 z M 43.615234 1.5546875 L 43.386719 1.7460938 L 43.439453 1.921875 L 43.404297 2.1484375 L 43.615234 2.2890625 L 43.841797 2.1835938 L 43.929688 1.921875 L 43.806641 1.7109375 L 43.615234 1.5546875 z M 39.908203 1.6347656 L 39.501953 1.7304688 L 39.470703 2.1210938 L 39.826172 2.2714844 L 40.125 1.9765625 L 39.908203 1.6347656 z M 5.5117188 1.7519531 L 5.1933594 2.015625 L 5.2246094 2.4023438 L 5.5898438 2.5292969 L 5.8574219 2.3242188 L 5.8730469 1.9667969 L 5.5117188 1.7519531 z M 33.703125 1.9648438 L 33.597656 2.1171875 L 33.533203 2.296875 L 33.638672 2.5761719 L 33.888672 2.5683594 L 34.097656 2.390625 L 34.140625 2.1992188 L 33.984375 2.0761719 L 33.703125 1.9648438 z M 45.71875 2.1523438 L 45.298828 2.1738281 L 45.236328 2.5742188 L 45.601562 2.7714844 L 45.884766 2.5 L 45.71875 2.1523438 z M 30.230469 2.3417969 L 29.851562 2.4199219 L 29.771484 2.7988281 L 30.005859 3.0390625 L 30.361328 3.0097656 L 30.53125 2.625 L 30.230469 2.3417969 z M 31.890625 2.3574219 L 31.660156 2.5332031 L 31.708984 2.8164062 L 31.933594 2.9140625 L 32.154297 2.8710938 L 32.277344 2.5996094 L 32.109375 2.3925781 L 31.890625 2.3574219 z M 41.669922 2.4355469 L 41.414062 2.5097656 L 41.320312 2.6933594 L 41.314453 2.8867188 L 41.511719 3.015625 L 41.773438 3.0292969 L 41.875 2.7773438 L 41.828125 2.578125 L 41.669922 2.4355469 z M 17.423828 2.6054688 L 17.212891 2.9394531 L 17.458984 3.2363281 L 17.861328 3.1132812 L 17.826172 2.7109375 L 17.423828 2.6054688 z M 19.9375 2.6464844 L 19.572266 2.7695312 L 19.542969 3.1894531 L 19.933594 3.2988281 L 20.173828 2.9609375 L 19.9375 2.6464844 z M 37.400391 2.6679688 L 37.197266 2.6953125 L 37.035156 2.8007812 L 37.041016 3.0351562 L 37.177734 3.2597656 L 37.443359 3.1992188 L 37.580078 3.0488281 L 37.607422 2.8359375 L 37.400391 2.6679688 z M 14.677734 2.6855469 L 14.337891 2.796875 L 14.265625 3.2109375 L 14.625 3.4160156 L 14.974609 3.25 L 14.962891 2.8632812 L 14.677734 2.6855469 z M 11.466797 2.7402344 L 11.224609 3.0644531 L 11.457031 3.4101562 L 11.833984 3.3007812 L 11.847656 2.9160156 L 11.466797 2.7402344 z M 61.095703 2.7441406 L 60.757812 2.8554688 L 60.683594 3.2695312 L 61.042969 3.4726562 L 61.394531 3.3066406 L 61.382812 2.9199219 L 61.095703 2.7441406 z M 1.1445312 2.7675781 L 0.88671875 3.1015625 L 1.1113281 3.4472656 L 1.4980469 3.4628906 L 1.6679688 3.1152344 L 1.4960938 2.8261719 L 1.1445312 2.7675781 z M 25.460938 2.8671875 L 25.302734 3.0878906 L 25.298828 3.2929688 L 25.419922 3.4707031 L 25.685547 3.4589844 L 25.820312 3.3027344 L 25.871094 3.1171875 L 25.712891 2.9433594 L 25.460938 2.8671875 z M 54.035156 2.8710938 L 53.869141 2.9550781 L 53.728516 3.0839844 L 53.691406 3.3808594 L 53.917969 3.4902344 L 54.185547 3.4296875 L 54.3125 3.28125 L 54.230469 3.0996094 L 54.035156 2.8710938 z M 7.5742188 2.9160156 L 7.4101562 3 L 7.2695312 3.1289062 L 7.2324219 3.4257812 L 7.4570312 3.5351562 L 7.7246094 3.4765625 L 7.8515625 3.3261719 L 7.7714844 3.1445312 L 7.5742188 2.9160156 z M 51.496094 2.9492188 L 51.197266 2.9804688 L 51.173828 3.1660156 L 51.199219 3.3535156 L 51.421875 3.5527344 L 51.640625 3.4296875 L 51.742188 3.1757812 L 51.691406 2.9863281 L 51.496094 2.9492188 z M 23.175781 3.0273438 L 22.994141 3.1992188 L 22.955078 3.46875 L 23.048828 3.640625 L 23.248047 3.6308594 L 23.53125 3.5273438 L 23.511719 3.34375 L 23.441406 3.1679688 L 23.175781 3.0273438 z M 63.330078 3.2324219 L 63.158203 3.4082031 L 63.121094 3.6289062 L 63.332031 3.8398438 L 63.583984 3.7558594 L 63.695312 3.5644531 L 63.613281 3.2871094 L 63.330078 3.2324219 z M 27.740234 3.3046875 L 27.537109 3.3320312 L 27.375 3.4375 L 27.378906 3.671875 L 27.515625 3.8964844 L 27.78125 3.8359375 L 27.919922 3.6835938 L 27.947266 3.4726562 L 27.740234 3.3046875 z M 3.5058594 3.4296875 L 3.3476562 3.5429688 L 3.3828125 3.7402344 L 3.5175781 4.0097656 L 3.6992188 3.9648438 L 3.8652344 3.875 L 3.9726562 3.5957031 L 3.7792969 3.4355469 L 3.5058594 3.4296875 z M 58.757812 3.4394531 L 58.533203 3.5820312 L 58.470703 3.7949219 L 58.617188 4.0449219 L 58.904297 4.0292969 L 59.029297 3.8183594 L 59.013672 3.59375 L 58.757812 3.4394531 z M 56.894531 3.4414062 L 56.691406 3.4628906 L 56.529297 3.6035156 L 56.574219 3.8671875 L 56.744141 3.9804688 L 56.935547 4.0097656 L 57.087891 3.8320312 L 57.132812 3.5722656 L 56.894531 3.4414062 z M 9.8554688 3.5839844 L 9.4628906 3.5996094 L 9.3574219 3.9707031 L 9.6875 4.2324219 L 9.9980469 3.9746094 L 9.8554688 3.5839844 z M 47.455078 3.7265625 L 47.248047 3.7753906 L 47.164062 4.0292969 L 47.261719 4.2089844 L 47.417969 4.3242188 L 47.634766 4.2363281 L 47.794922 4.0273438 L 47.646484 3.8007812 L 47.455078 3.7265625 z M 50.089844 3.8613281 L 49.824219 3.8828125 L 49.671875 4.0410156 L 49.683594 4.3300781 L 49.945312 4.4511719 L 50.154297 4.3222656 L 50.244141 4.1171875 L 50.089844 3.8613281 z M 39.173828 3.96875 L 39.015625 4.1894531 L 39.013672 4.3945312 L 39.132812 4.5703125 L 39.400391 4.5585938 L 39.533203 4.4042969 L 39.585938 4.21875 L 39.425781 4.0449219 L 39.173828 3.96875 z M 35.621094 3.9902344 L 35.373047 4.2871094 L 35.46875 4.6074219 L 35.796875 4.75 L 36.126953 4.4882812 L 35.992188 4.0976562 L 35.621094 3.9902344 z M 21.007812 4.0175781 L 20.767578 4.15625 L 20.720703 4.3945312 L 20.759766 4.640625 L 21.056641 4.6464844 L 21.134766 4.4804688 L 21.310547 4.3339844 L 21.246094 4.0898438 L 21.007812 4.0175781 z M 45.054688 4.0292969 L 44.650391 4.1230469 L 44.619141 4.515625 L 44.972656 4.6640625 L 45.273438 4.3691406 L 45.054688 4.0292969 z M 5.8378906 4.3320312 L 5.4726562 4.5078125 L 5.5175781 4.921875 L 5.9023438 5 L 6.09375 4.6660156 L 5.8378906 4.3320312 z M 12.902344 4.3554688 L 12.695312 4.40625 L 12.611328 4.6582031 L 12.708984 4.8398438 L 12.865234 4.953125 L 13.082031 4.8652344 L 13.244141 4.6582031 L 13.09375 4.4316406 L 12.902344 4.3554688 z M 34.076172 4.4550781 L 33.671875 4.5429688 L 33.519531 4.8984375 L 33.785156 5.1796875 L 34.115234 5.1230469 L 34.294922 4.8144531 L 34.076172 4.4550781 z M 42.591797 4.5292969 L 42.230469 4.7441406 L 42.361328 5.1269531 L 42.777344 5.1328125 L 42.902344 4.7597656 L 42.591797 4.5292969 z M 15.537109 4.6308594 L 15.353516 4.8652344 L 15.466797 5.1054688 L 15.669922 5.1914062 L 15.935547 5.0761719 L 15.955078 4.7910156 L 15.759766 4.640625 L 15.537109 4.6308594 z M 31.048828 4.6425781 L 30.732422 4.9082031 L 30.761719 5.2929688 L 31.126953 5.4199219 L 31.394531 5.2148438 L 31.410156 4.859375 L 31.048828 4.6425781 z M 53.232422 4.75 L 52.867188 4.875 L 52.837891 5.2949219 L 53.226562 5.4042969 L 53.46875 5.0644531 L 53.232422 4.75 z M 18.435547 4.8515625 L 18.210938 4.9921875 L 18.148438 5.2050781 L 18.294922 5.4550781 L 18.582031 5.4414062 L 18.707031 5.2285156 L 18.691406 5.0058594 L 18.435547 4.8515625 z M 29.105469 4.9785156 L 28.765625 5.1757812 L 28.84375 5.5527344 L 29.257812 5.6308594 L 29.412109 5.2578125 L 29.105469 4.9785156 z M 2.3789062 5.0507812 L 2.078125 5.2949219 L 2.1816406 5.6679688 L 2.5019531 5.7714844 L 2.8046875 5.5820312 L 2.7753906 5.1621094 L 2.3789062 5.0507812 z M 23.695312 5.1269531 L 23.542969 5.515625 L 23.847656 5.7636719 L 24.173828 5.5566406 L 24.099609 5.140625 L 23.695312 5.1269531 z M 62.373047 5.1542969 L 62.015625 5.3027344 L 61.951172 5.6328125 L 62.175781 5.9101562 L 62.589844 5.8320312 L 62.652344 5.4238281 L 62.373047 5.1542969 z M 59.867188 5.3007812 L 59.634766 5.3769531 L 59.498047 5.5546875 L 59.585938 5.8398438 L 59.849609 5.8828125 L 60.037109 5.765625 L 60.091797 5.4804688 L 59.867188 5.3007812 z M 55.595703 5.328125 L 55.412109 5.5625 L 55.525391 5.8027344 L 55.728516 5.890625 L 55.994141 5.7753906 L 56.015625 5.4882812 L 55.820312 5.3398438 L 55.595703 5.328125 z M 26.398438 5.3476562 L 26.1875 5.4179688 L 26.066406 5.6796875 L 26.240234 5.9082031 L 26.486328 5.890625 L 26.660156 5.75 L 26.642578 5.453125 L 26.398438 5.3476562 z M 40.542969 5.4414062 L 40.384766 5.8242188 L 40.591797 6.1503906 L 40.974609 6.0917969 L 41.115234 5.7871094 L 40.962891 5.4648438 L 40.542969 5.4414062 z M 8.0761719 5.4433594 L 7.8105469 5.4628906 L 7.65625 5.6230469 L 7.6699219 5.9121094 L 7.9316406 6.0332031 L 8.140625 5.9042969 L 8.2304688 5.6992188 L 8.0761719 5.4433594 z M 37.394531 5.4609375 L 37.148438 5.5078125 L 37.001953 5.7421875 L 37.070312 5.9765625 L 37.21875 6.1757812 L 37.486328 6.0429688 L 37.476562 5.859375 L 37.566406 5.6484375 L 37.394531 5.4609375 z M 10.472656 5.4941406 L 10.332031 5.6347656 L 10.1875 5.8984375 L 10.326172 6.0234375 L 10.494141 6.109375 L 10.785156 6.0371094 L 10.808594 5.7890625 L 10.658203 5.5605469 L 10.472656 5.4941406 z M 48.832031 5.75 L 48.585938 5.796875 L 48.4375 6.03125 L 48.505859 6.2636719 L 48.65625 6.4628906 L 48.921875 6.3300781 L 48.914062 6.1484375 L 49.001953 5.9355469 L 48.832031 5.75 z M 31.947266 6.0429688 L 31.691406 6.375 L 31.914062 6.7226562 L 32.302734 6.7382812 L 32.470703 6.390625 L 32.300781 6.0996094 L 31.947266 6.0429688 z M 0.36523438 6.0527344 L 0.12109375 6.1757812 L 0.033203125 6.3496094 L 0.15625 6.5078125 L 0.40039062 6.6835938 L 0.54101562 6.5605469 L 0.64453125 6.4023438 L 0.61132812 6.1054688 L 0.36523438 6.0527344 z M 46.828125 6.0703125 L 46.470703 6.2167969 L 46.40625 6.546875 L 46.630859 6.8242188 L 47.044922 6.7460938 L 47.107422 6.3378906 L 46.828125 6.0703125 z M 5.0917969 6.1230469 L 4.9003906 6.1816406 L 4.6503906 6.3496094 L 4.7148438 6.5234375 L 4.8242188 6.6777344 L 5.1152344 6.75 L 5.2519531 6.5410156 L 5.2246094 6.2675781 L 5.0917969 6.1230469 z M 21.185547 6.1582031 L 21.017578 6.2773438 L 20.921875 6.4453125 L 21.035156 6.6503906 L 21.261719 6.7851562 L 21.46875 6.609375 L 21.519531 6.4121094 L 21.445312 6.2109375 L 21.185547 6.1582031 z M 13.574219 6.4375 L 13.216797 6.5859375 L 13.152344 6.9160156 L 13.376953 7.1933594 L 13.789062 7.1152344 L 13.853516 6.7070312 L 13.574219 6.4375 z M 57.861328 6.453125 L 57.695312 6.5273438 L 57.464844 6.5195312 L 57.351562 6.7441406 L 57.482422 6.9589844 L 57.753906 7.0136719 L 57.947266 6.8671875 L 58.080078 6.65625 L 57.861328 6.453125 z M 51.869141 6.4707031 L 51.664062 6.6171875 L 51.681641 6.8671875 L 51.896484 7.0410156 L 52.136719 7.0019531 L 52.351562 6.8769531 L 52.251953 6.5957031 L 52.070312 6.5839844 L 51.869141 6.4707031 z M 35.001953 6.6328125 L 34.775391 6.8261719 L 34.828125 7 L 34.792969 7.2285156 L 35.001953 7.3691406 L 35.230469 7.2636719 L 35.316406 7 L 35.195312 6.7910156 L 35.001953 6.6328125 z M 19.025391 6.6523438 L 18.779297 6.7734375 L 18.693359 6.9492188 L 18.814453 7.1054688 L 19.060547 7.28125 L 19.201172 7.1582031 L 19.304688 7.0019531 L 19.269531 6.703125 L 19.025391 6.6523438 z M 15.873047 6.6738281 L 15.615234 7.0078125 L 15.839844 7.3535156 L 16.226562 7.3691406 L 16.396484 7.0214844 L 16.224609 6.7324219 L 15.873047 6.6738281 z M 44.287109 6.6757812 L 44.126953 6.7910156 L 44.162109 6.9863281 L 44.298828 7.2558594 L 44.480469 7.2128906 L 44.646484 7.1210938 L 44.751953 6.8417969 L 44.560547 6.6816406 L 44.287109 6.6757812 z M 60.839844 7.0488281 L 60.609375 7.2246094 L 60.660156 7.5058594 L 60.884766 7.6054688 L 61.105469 7.5625 L 61.226562 7.2910156 L 61.058594 7.0839844 L 60.839844 7.0488281 z M 37.367188 7.09375 L 37.162109 7.2949219 L 37.208984 7.5371094 L 37.369141 7.6933594 L 37.662109 7.640625 L 37.738281 7.3847656 L 37.642578 7.1835938 L 37.367188 7.09375 z M 8.0292969 7.2402344 L 7.8652344 7.3261719 L 7.7246094 7.453125 L 7.6875 7.75 L 7.9121094 7.8613281 L 8.1796875 7.8007812 L 8.3066406 7.6503906 L 8.2265625 7.46875 L 8.0292969 7.2402344 z M 29.048828 7.25 L 28.828125 7.609375 L 29.121094 7.8867188 L 29.492188 7.6992188 L 29.429688 7.3105469 L 29.048828 7.25 z M 11.488281 7.2734375 L 11.179688 7.4082031 L 11.080078 7.75 L 11.378906 8.046875 L 11.75 7.8652344 L 11.8125 7.4824219 L 11.488281 7.2734375 z M 42.335938 7.3417969 L 42.125 7.4121094 L 42.003906 7.6738281 L 42.177734 7.9023438 L 42.423828 7.8847656 L 42.597656 7.7441406 L 42.580078 7.4472656 L 42.335938 7.3417969 z M 24.232422 7.4375 L 23.837891 7.453125 L 23.732422 7.8242188 L 24.0625 8.0859375 L 24.373047 7.828125 L 24.232422 7.4375 z M 54.5 7.46875 L 54.341797 7.6894531 L 54.337891 7.8945312 L 54.458984 8.0703125 L 54.724609 8.0585938 L 54.859375 7.9042969 L 54.910156 7.7167969 L 54.751953 7.5449219 L 54.5 7.46875 z M 3.5546875 7.4863281 L 3.3515625 7.5136719 L 3.1894531 7.6171875 L 3.1933594 7.8515625 L 3.3320312 8.0761719 L 3.5957031 8.0175781 L 3.734375 7.8652344 L 3.7617188 7.6542969 L 3.5546875 7.4863281 z M 39.767578 7.4980469 L 39.541016 7.640625 L 39.478516 7.8515625 L 39.625 8.1035156 L 39.912109 8.0878906 L 40.037109 7.8769531 L 40.021484 7.6523438 L 39.767578 7.4980469 z M 27.115234 7.7050781 L 26.947266 7.7773438 L 26.716797 7.7714844 L 26.603516 7.9960938 L 26.734375 8.2089844 L 27.005859 8.265625 L 27.199219 8.1171875 L 27.333984 7.9082031 L 27.115234 7.7050781 z M 50.121094 7.9121094 L 49.863281 8.2460938 L 50.087891 8.5917969 L 50.474609 8.6074219 L 50.644531 8.2597656 L 50.472656 7.9707031 L 50.121094 7.9121094 z M 32.400391 8.1171875 L 32.152344 8.4140625 L 32.248047 8.7363281 L 32.576172 8.8789062 L 32.90625 8.6171875 L 32.771484 8.2265625 L 32.400391 8.1171875 z M 48.359375 8.1464844 L 47.953125 8.2421875 L 47.921875 8.6328125 L 48.277344 8.7832031 L 48.576172 8.4882812 L 48.359375 8.1464844 z M 63.382812 8.1777344 L 62.976562 8.2714844 L 62.945312 8.6640625 L 63.300781 8.8125 L 63.599609 8.5175781 L 63.382812 8.1777344 z M 5.640625 8.2128906 L 5.3261719 8.4863281 L 5.4804688 8.8476562 L 5.8632812 8.8144531 L 5.9921875 8.4140625 L 5.640625 8.2128906 z M 22.074219 8.3105469 L 21.830078 8.4335938 L 21.742188 8.609375 L 21.865234 8.765625 L 22.109375 8.9414062 L 22.25 8.8183594 L 22.355469 8.6621094 L 22.320312 8.3632812 L 22.074219 8.3105469 z M 52.341797 8.3730469 L 52.173828 8.4902344 L 52.080078 8.6601562 L 52.193359 8.8652344 L 52.417969 9 L 52.625 8.8242188 L 52.677734 8.625 L 52.603516 8.4257812 L 52.341797 8.3730469 z M 14.390625 8.4609375 L 14.142578 8.7167969 L 14.269531 9.1171875 L 14.683594 9.1308594 L 14.916016 8.8203125 L 14.726562 8.484375 L 14.390625 8.4609375 z M 59.800781 8.5332031 L 59.607422 8.5507812 L 59.501953 8.7597656 L 59.519531 9.0234375 L 59.783203 9.09375 L 59.974609 9.0234375 L 60.097656 8.8476562 L 59.992188 8.6035156 L 59.800781 8.5332031 z M 45.517578 8.5527344 L 45.298828 8.9101562 L 45.591797 9.1894531 L 45.960938 9.0019531 L 45.898438 8.6132812 L 45.517578 8.5527344 z M 1.46875 8.625 L 1.3535156 8.7675781 L 1.1464844 8.8671875 L 1.1523438 9.1191406 L 1.3671875 9.2480469 L 1.6328125 9.1699219 L 1.7363281 8.9492188 L 1.7558594 8.7011719 L 1.46875 8.625 z M 56.4375 8.6738281 L 56.246094 8.7324219 L 55.996094 8.9003906 L 56.060547 9.0742188 L 56.169922 9.2285156 L 56.460938 9.3007812 L 56.597656 9.0898438 L 56.570312 8.8164062 L 56.4375 8.6738281 z M 16.800781 8.7480469 L 16.417969 8.9238281 L 16.455078 9.3359375 L 16.791016 9.5292969 L 17.101562 9.3007812 L 17.085938 8.9648438 L 16.800781 8.7480469 z M 19.808594 8.9375 L 19.695312 9.0800781 L 19.488281 9.1796875 L 19.492188 9.4316406 L 19.708984 9.5605469 L 19.974609 9.4824219 L 20.078125 9.2617188 L 20.097656 9.0136719 L 19.808594 8.9375 z M 10.087891 8.9492188 L 9.6953125 8.9667969 L 9.5898438 9.3359375 L 9.9199219 9.5976562 L 10.230469 9.3398438 L 10.087891 8.9492188 z M 30.314453 8.9765625 L 29.908203 9.0703125 L 29.876953 9.4609375 L 30.232422 9.6113281 L 30.53125 9.3164062 L 30.314453 8.9765625 z M 24.654297 9.0742188 L 24.462891 9.2578125 L 24.464844 9.4628906 L 24.548828 9.6367188 L 24.783203 9.6601562 L 25.021484 9.5507812 L 24.994141 9.28125 L 24.861328 9.125 L 24.654297 9.0742188 z M 35.738281 9.2753906 L 35.535156 9.296875 L 35.373047 9.4375 L 35.416016 9.7011719 L 35.587891 9.8164062 L 35.777344 9.8457031 L 35.931641 9.6660156 L 35.976562 9.40625 L 35.738281 9.2753906 z M 41.943359 9.2792969 L 41.537109 9.3730469 L 41.505859 9.765625 L 41.861328 9.9160156 L 42.160156 9.6191406 L 41.943359 9.2792969 z M 58.072266 9.421875 L 57.900391 9.5976562 L 57.863281 9.8183594 L 58.044922 10 L 58.162109 10 L 58.326172 9.9453125 L 58.4375 9.7539062 L 58.355469 9.4746094 L 58.072266 9.421875 z M 37.929688 9.53125 L 37.816406 9.6738281 L 37.609375 9.7734375 L 37.613281 10 L 38.128906 10 L 38.197266 9.8554688 L 38.216797 9.6074219 L 37.929688 9.53125 z M 11.927734 9.6523438 L 11.716797 9.9863281 L 11.728516 10 L 12.351562 10 L 12.330078 9.7578125 L 11.927734 9.6523438 z M 27.742188 9.7441406 L 27.380859 9.9589844 L 27.394531 10 L 28.044922 10 L 28.052734 9.9746094 L 27.742188 9.7441406 z M 33.988281 9.8007812 L 33.746094 9.8691406 L 33.652344 10 L 34.123047 10 L 33.988281 9.8007812 z M 7.9707031 9.9023438 L 7.8769531 10 L 8.1777344 10 L 7.9707031 9.9023438 z M 43.958984 9.9550781 L 43.916016 10 L 44.306641 10 L 44.294922 9.9785156 L 43.958984 9.9550781 z "
     style="fill:#565a28" />
  <desc
     id="desc2943">Created with Snap</desc>
</svg>
