<?xml version="1.0" encoding="UTF-8" standalone="no"?>
<svg
   xmlns:dc="http://purl.org/dc/elements/1.1/"
   xmlns:cc="http://creativecommons.org/ns#"
   xmlns:rdf="http://www.w3.org/1999/02/22-rdf-syntax-ns#"
   xmlns:svg="http://www.w3.org/2000/svg"
   xmlns="http://www.w3.org/2000/svg"
   id="Svg"
   width="64"
   height="64"
   version="1.1">
  <metadata
     id="metadata2947">
    <rdf:RDF>
      <cc:Work
         rdf:about="">
        <dc:format>image/svg+xml</dc:format>
        <dc:type
           rdf:resource="http://purl.org/dc/dcmitype/StillImage" />
      </cc:Work>
    </rdf:RDF>
  </metadata>
  <defs
     id="defs3" />
  <rect
     style="fill:#ffffc7;fill-opacity:1;stroke:none"
     id="rect8566"
     y="0"
     x="0"
     rx="0"
     height="5"
     width="64" />
  <path
     id="path15977"
     d="M 4.9648438 0 L 4.9511719 0.076171875 L 5.1601562 0.28710938 L 5.4140625 0.203125 L 5.5253906 0.01171875 L 5.5214844 0 L 4.9648438 0 z M 31.984375 0 L 31.957031 0.0390625 L 31.892578 0.21679688 L 31.998047 0.49609375 L 32.25 0.48828125 L 32.457031 0.31054688 L 32.501953 0.12109375 L 32.349609 0 L 31.984375 0 z M 41.003906 0 L 41.195312 0.11328125 L 41.460938 0.03515625 L 41.478516 0 L 41.003906 0 z M 43.09375 0 L 43.001953 0.07421875 L 42.980469 0.34960938 L 43.148438 0.5234375 L 43.375 0.63085938 L 43.548828 0.38867188 L 43.455078 0.23242188 L 43.435547 0.001953125 L 43.429688 0 L 43.09375 0 z M 0.5546875 0.26171875 L 0.15039062 0.35546875 L 0.11914062 0.74804688 L 0.47460938 0.8984375 L 0.7734375 0.6015625 L 0.5546875 0.26171875 z M 37.699219 0.32421875 L 37.490234 0.65625 L 37.734375 0.95507812 L 38.136719 0.83203125 L 38.101562 0.4296875 L 37.699219 0.32421875 z M 26.216797 0.35351562 L 26.056641 0.46679688 L 26.09375 0.6640625 L 26.228516 0.93359375 L 26.410156 0.88867188 L 26.576172 0.79882812 L 26.683594 0.51953125 L 26.490234 0.359375 L 26.216797 0.35351562 z M 53.306641 0.5234375 L 53.134766 0.69921875 L 53.097656 0.91992188 L 53.306641 1.1308594 L 53.560547 1.046875 L 53.671875 0.85546875 L 53.589844 0.578125 L 53.306641 0.5234375 z M 19.884766 0.609375 L 19.664062 0.96875 L 19.957031 1.2460938 L 20.328125 1.0585938 L 20.265625 0.66992188 L 19.884766 0.609375 z M 51.630859 0.61132812 L 51.462891 0.68359375 L 51.234375 0.67773438 L 51.119141 0.90234375 L 51.251953 1.1152344 L 51.521484 1.171875 L 51.716797 1.0234375 L 51.849609 0.81445312 L 51.630859 0.61132812 z M 57.623047 0.640625 L 57.390625 0.71679688 L 57.253906 0.89453125 L 57.341797 1.1796875 L 57.605469 1.2226562 L 57.792969 1.1035156 L 57.847656 0.8203125 L 57.623047 0.640625 z M 47.21875 0.66210938 L 46.962891 0.73632812 L 46.869141 0.91992188 L 46.863281 1.1132812 L 47.060547 1.2421875 L 47.322266 1.2558594 L 47.423828 1.0039062 L 47.376953 0.8046875 L 47.21875 0.66210938 z M 10.912109 0.67382812 L 10.740234 0.78710938 L 10.664062 0.98632812 L 10.824219 1.1992188 L 11.029297 1.2226562 L 11.210938 1.1582031 L 11.263672 0.9296875 L 11.183594 0.67773438 L 10.912109 0.67382812 z M 35.673828 0.67578125 L 35.269531 0.76367188 L 35.119141 1.1191406 L 35.382812 1.4003906 L 35.714844 1.34375 L 35.894531 1.0351562 L 35.673828 0.67578125 z M 24.167969 0.72851562 L 24.009766 0.95117188 L 24.007812 1.1542969 L 24.126953 1.3320312 L 24.394531 1.3203125 L 24.527344 1.1640625 L 24.580078 0.97851562 L 24.419922 0.80664062 L 24.167969 0.72851562 z M 16.990234 0.83398438 L 16.585938 0.921875 L 16.433594 1.2773438 L 16.699219 1.5585938 L 17.03125 1.5019531 L 17.210938 1.1933594 L 16.990234 0.83398438 z M 22.302734 0.875 L 22.03125 0.99609375 L 22.019531 1.2636719 L 22.158203 1.4355469 L 22.447266 1.4570312 L 22.599609 1.2128906 L 22.496094 0.98828125 L 22.302734 0.875 z M 59.673828 0.94335938 L 59.447266 1.1347656 L 59.5 1.3105469 L 59.464844 1.5371094 L 59.673828 1.6777344 L 59.902344 1.5722656 L 59.990234 1.3105469 L 59.867188 1.0996094 L 59.673828 0.94335938 z M 8.5253906 0.96484375 L 8.1679688 1.1132812 L 8.1035156 1.4433594 L 8.328125 1.7207031 L 8.7421875 1.6425781 L 8.8046875 1.234375 L 8.5253906 0.96484375 z M 62.603516 1.109375 L 62.337891 1.1289062 L 62.185547 1.2890625 L 62.199219 1.578125 L 62.458984 1.6992188 L 62.667969 1.5703125 L 62.757812 1.3632812 L 62.603516 1.109375 z M 49.216797 1.1503906 L 48.994141 1.2460938 L 48.814453 1.4199219 L 48.978516 1.6679688 L 49.158203 1.6367188 L 49.380859 1.6992188 L 49.544922 1.5078125 L 49.466797 1.2695312 L 49.216797 1.1503906 z M 3.0976562 1.15625 L 2.6777344 1.1777344 L 2.6152344 1.578125 L 2.9804688 1.7753906 L 3.2636719 1.5039062 L 3.0976562 1.15625 z M 13.597656 1.1738281 L 13.490234 1.3261719 L 13.425781 1.5058594 L 13.53125 1.7851562 L 13.783203 1.7773438 L 13.990234 1.5996094 L 14.033203 1.4082031 L 13.876953 1.2851562 L 13.597656 1.1738281 z M 28.470703 1.2949219 L 28.224609 1.34375 L 28.076172 1.5761719 L 28.144531 1.8105469 L 28.292969 2.0097656 L 28.560547 1.8769531 L 28.552734 1.6953125 L 28.640625 1.4824219 L 28.470703 1.2949219 z M 55.8125 1.34375 L 55.646484 1.4160156 L 55.416016 1.4082031 L 55.302734 1.6347656 L 55.433594 1.8476562 L 55.705078 1.9023438 L 55.898438 1.7558594 L 56.03125 1.546875 L 55.8125 1.34375 z M 43.615234 1.5546875 L 43.386719 1.7460938 L 43.439453 1.921875 L 43.404297 2.1484375 L 43.615234 2.2890625 L 43.841797 2.1835938 L 43.929688 1.921875 L 43.806641 1.7109375 L 43.615234 1.5546875 z M 39.908203 1.6347656 L 39.501953 1.7304688 L 39.470703 2.1210938 L 39.826172 2.2714844 L 40.125 1.9765625 L 39.908203 1.6347656 z M 5.5117188 1.7519531 L 5.1933594 2.015625 L 5.2246094 2.4023438 L 5.5898438 2.5292969 L 5.8574219 2.3242188 L 5.8730469 1.9667969 L 5.5117188 1.7519531 z M 33.703125 1.9648438 L 33.597656 2.1171875 L 33.533203 2.296875 L 33.638672 2.5761719 L 33.888672 2.5683594 L 34.097656 2.390625 L 34.140625 2.1992188 L 33.984375 2.0761719 L 33.703125 1.9648438 z M 45.71875 2.1523438 L 45.298828 2.1738281 L 45.236328 2.5742188 L 45.601562 2.7714844 L 45.884766 2.5 L 45.71875 2.1523438 z M 30.230469 2.3417969 L 29.851562 2.4199219 L 29.771484 2.7988281 L 30.005859 3.0390625 L 30.361328 3.0097656 L 30.53125 2.625 L 30.230469 2.3417969 z M 31.890625 2.3574219 L 31.660156 2.5332031 L 31.708984 2.8164062 L 31.933594 2.9140625 L 32.154297 2.8710938 L 32.277344 2.5996094 L 32.109375 2.3925781 L 31.890625 2.3574219 z M 41.669922 2.4355469 L 41.414062 2.5097656 L 41.320312 2.6933594 L 41.314453 2.8867188 L 41.511719 3.015625 L 41.773438 3.0292969 L 41.875 2.7773438 L 41.828125 2.578125 L 41.669922 2.4355469 z M 17.423828 2.6054688 L 17.212891 2.9394531 L 17.458984 3.2363281 L 17.861328 3.1132812 L 17.826172 2.7109375 L 17.423828 2.6054688 z M 19.9375 2.6464844 L 19.572266 2.7695312 L 19.542969 3.1894531 L 19.933594 3.2988281 L 20.173828 2.9609375 L 19.9375 2.6464844 z M 37.400391 2.6679688 L 37.197266 2.6953125 L 37.035156 2.8007812 L 37.041016 3.0351562 L 37.177734 3.2597656 L 37.443359 3.1992188 L 37.580078 3.0488281 L 37.607422 2.8359375 L 37.400391 2.6679688 z M 14.677734 2.6855469 L 14.337891 2.796875 L 14.265625 3.2109375 L 14.625 3.4160156 L 14.974609 3.25 L 14.962891 2.8632812 L 14.677734 2.6855469 z M 11.466797 2.7402344 L 11.224609 3.0644531 L 11.457031 3.4101562 L 11.833984 3.3007812 L 11.847656 2.9160156 L 11.466797 2.7402344 z M 61.095703 2.7441406 L 60.757812 2.8554688 L 60.683594 3.2695312 L 61.042969 3.4726562 L 61.394531 3.3066406 L 61.382812 2.9199219 L 61.095703 2.7441406 z M 1.1445312 2.7675781 L 0.88671875 3.1015625 L 1.1113281 3.4472656 L 1.4980469 3.4628906 L 1.6679688 3.1152344 L 1.4960938 2.8261719 L 1.1445312 2.7675781 z M 25.460938 2.8671875 L 25.302734 3.0878906 L 25.298828 3.2929688 L 25.419922 3.4707031 L 25.685547 3.4589844 L 25.820312 3.3027344 L 25.871094 3.1171875 L 25.712891 2.9433594 L 25.460938 2.8671875 z M 54.035156 2.8710938 L 53.869141 2.9550781 L 53.728516 3.0839844 L 53.691406 3.3808594 L 53.917969 3.4902344 L 54.185547 3.4296875 L 54.3125 3.28125 L 54.230469 3.0996094 L 54.035156 2.8710938 z M 7.5742188 2.9160156 L 7.4101562 3 L 7.2695312 3.1289062 L 7.2324219 3.4257812 L 7.4570312 3.5351562 L 7.7246094 3.4765625 L 7.8515625 3.3261719 L 7.7714844 3.1445312 L 7.5742188 2.9160156 z M 51.496094 2.9492188 L 51.197266 2.9804688 L 51.173828 3.1660156 L 51.199219 3.3535156 L 51.421875 3.5527344 L 51.640625 3.4296875 L 51.742188 3.1757812 L 51.691406 2.9863281 L 51.496094 2.9492188 z M 23.175781 3.0273438 L 22.994141 3.1992188 L 22.955078 3.46875 L 23.048828 3.640625 L 23.248047 3.6308594 L 23.53125 3.5273438 L 23.511719 3.34375 L 23.441406 3.1679688 L 23.175781 3.0273438 z M 63.330078 3.2324219 L 63.158203 3.4082031 L 63.121094 3.6289062 L 63.332031 3.8398438 L 63.583984 3.7558594 L 63.695312 3.5644531 L 63.613281 3.2871094 L 63.330078 3.2324219 z M 27.740234 3.3046875 L 27.537109 3.3320312 L 27.375 3.4375 L 27.378906 3.671875 L 27.515625 3.8964844 L 27.78125 3.8359375 L 27.919922 3.6835938 L 27.947266 3.4726562 L 27.740234 3.3046875 z M 3.5058594 3.4296875 L 3.3476562 3.5429688 L 3.3828125 3.7402344 L 3.5175781 4.0097656 L 3.6992188 3.9648438 L 3.8652344 3.875 L 3.9726562 3.5957031 L 3.7792969 3.4355469 L 3.5058594 3.4296875 z M 58.757812 3.4394531 L 58.533203 3.5820312 L 58.470703 3.7949219 L 58.617188 4.0449219 L 58.904297 4.0292969 L 59.029297 3.8183594 L 59.013672 3.59375 L 58.757812 3.4394531 z M 56.894531 3.4414062 L 56.691406 3.4628906 L 56.529297 3.6035156 L 56.574219 3.8671875 L 56.744141 3.9804688 L 56.935547 4.0097656 L 57.087891 3.8320312 L 57.132812 3.5722656 L 56.894531 3.4414062 z M 9.8554688 3.5839844 L 9.4628906 3.5996094 L 9.3574219 3.9707031 L 9.6875 4.2324219 L 9.9980469 3.9746094 L 9.8554688 3.5839844 z M 47.455078 3.7265625 L 47.248047 3.7753906 L 47.164062 4.0292969 L 47.261719 4.2089844 L 47.417969 4.3242188 L 47.634766 4.2363281 L 47.794922 4.0273438 L 47.646484 3.8007812 L 47.455078 3.7265625 z M 50.089844 3.8613281 L 49.824219 3.8828125 L 49.671875 4.0410156 L 49.683594 4.3300781 L 49.945312 4.4511719 L 50.154297 4.3222656 L 50.244141 4.1171875 L 50.089844 3.8613281 z M 39.173828 3.96875 L 39.015625 4.1894531 L 39.013672 4.3945312 L 39.132812 4.5703125 L 39.400391 4.5585938 L 39.533203 4.4042969 L 39.585938 4.21875 L 39.425781 4.0449219 L 39.173828 3.96875 z M 35.621094 3.9902344 L 35.373047 4.2871094 L 35.46875 4.6074219 L 35.796875 4.75 L 36.126953 4.4882812 L 35.992188 4.0976562 L 35.621094 3.9902344 z M 21.007812 4.0175781 L 20.767578 4.15625 L 20.720703 4.3945312 L 20.759766 4.640625 L 21.056641 4.6464844 L 21.134766 4.4804688 L 21.310547 4.3339844 L 21.246094 4.0898438 L 21.007812 4.0175781 z M 45.054688 4.0292969 L 44.650391 4.1230469 L 44.619141 4.515625 L 44.972656 4.6640625 L 45.273438 4.3691406 L 45.054688 4.0292969 z M 5.8378906 4.3320312 L 5.4726562 4.5078125 L 5.5175781 4.921875 L 5.9023438 5 L 6.09375 4.6660156 L 5.8378906 4.3320312 z M 12.902344 4.3554688 L 12.695312 4.40625 L 12.611328 4.6582031 L 12.708984 4.8398438 L 12.865234 4.953125 L 13.082031 4.8652344 L 13.244141 4.6582031 L 13.09375 4.4316406 L 12.902344 4.3554688 z M 34.076172 4.4550781 L 33.671875 4.5429688 L 33.519531 4.8984375 L 33.615234 5 L 34.1875 5 L 34.294922 4.8144531 L 34.076172 4.4550781 z M 42.591797 4.5292969 L 42.230469 4.7441406 L 42.318359 5 L 42.822266 5 L 42.902344 4.7597656 L 42.591797 4.5292969 z M 15.537109 4.6308594 L 15.353516 4.8652344 L 15.417969 5 L 15.941406 5 L 15.955078 4.7910156 L 15.759766 4.640625 L 15.537109 4.6308594 z M 31.048828 4.6425781 L 30.732422 4.9082031 L 30.740234 5 L 31.404297 5 L 31.410156 4.859375 L 31.048828 4.6425781 z M 53.232422 4.75 L 52.867188 4.875 L 52.859375 5 L 53.419922 5 L 53.232422 4.75 z M 18.435547 4.8515625 L 18.210938 4.9921875 L 18.208984 5 L 18.681641 5 L 18.435547 4.8515625 z M 29.105469 4.9785156 L 29.068359 5 L 29.128906 5 L 29.105469 4.9785156 z "
     style="fill:#565a28" />
  <desc
     id="desc2943">Created with Snap</desc>
</svg>
