xml version="1.0" encoding="UTF-8" standalone="no"?>
<svg
   xmlns:dc="http://purl.org/dc/elements/1.1/"
   xmlns:cc="http://creativecommons.org/ns#"
   xmlns:rdf="http://www.w3.org/1999/02/22-rdf-syntax-ns#"
   xmlns:svg="http://www.w3.org/2000/svg"
   xmlns="http://www.w3.org/2000/svg"
   id="Svg"
   width="64"
   height="64"
   version="1.1">
  <metadata
     id="metadata2947">
    <rdf:RDF>
      <cc:Work
         rdf:about="">
        <dc:format>image/svg+xml</dc:format>
        <dc:type
           rdf:resource="http://purl.org/dc/dcmitype/StillImage" />
      </cc:Work>
    </rdf:RDF>
  </metadata>
  <defs
     id="defs3" />
  <rect
     style="fill:#ffffc7;fill-opacity:1;stroke:none"
     id="rect8566"
     y="0"
     x="0"
     rx="0"
     height="15"
     width="64" />
  <path
     id="path15977"
     d="M 4.9648438 0 L 4.9511719 0.076171875 L 5.1601562 0.28710938 L 5.4140625 0.203125 L 5.5253906 0.01171875 L 5.5214844 0 L 4.9648438 0 z M 31.984375 0 L 31.957031 0.0390625 L 31.892578 0.21679688 L 31.998047 0.49609375 L 32.25 0.48828125 L 32.457031 0.31054688 L 32.501953 0.12109375 L 32.349609 0 L 31.984375 0 z M 41.003906 0 L 41.195312 0.11328125 L 41.460938 0.03515625 L 41.478516 0 L 41.003906 0 z M 43.09375 0 L 43.001953 0.07421875 L 42.980469 0.34960938 L 43.148438 0.5234375 L 43.375 0.63085938 L 43.548828 0.38867188 L 43.455078 0.23242188 L 43.435547 0.001953125 L 43.429688 0 L 43.09375 0 z M 0.5546875 0.26171875 L 0.15039062 0.35546875 L 0.11914062 0.74804688 L 0.47460938 0.8984375 L 0.7734375 0.6015625 L 0.5546875 0.26171875 z M 37.699219 0.32421875 L 37.490234 0.65625 L 37.734375 0.95507812 L 38.136719 0.83203125 L 38.101562 0.4296875 L 37.699219 0.32421875 z M 26.216797 0.35351562 L 26.056641 0.46679688 L 26.09375 0.6640625 L 26.228516 0.93359375 L 26.410156 0.88867188 L 26.576172 0.79882812 L 26.683594 0.51953125 L 26.490234 0.359375 L 26.216797 0.35351562 z M 53.306641 0.5234375 L 53.134766 0.69921875 L 53.097656 0.91992188 L 53.306641 1.1308594 L 53.560547 1.046875 L 53.671875 0.85546875 L 53.589844 0.578125 L 53.306641 0.5234375 z M 19.884766 0.609375 L 19.664062 0.96875 L 19.957031 1.2460938 L 20.328125 1.0585938 L 20.265625 0.66992188 L 19.884766 0.609375 z M 51.630859 0.61132812 L 51.462891 0.68359375 L 51.234375 0.67773438 L 51.119141 0.90234375 L 51.251953 1.1152344 L 51.521484 1.171875 L 51.716797 1.0234375 L 51.849609 0.81445312 L 51.630859 0.61132812 z M 57.623047 0.640625 L 57.390625 0.71679688 L 57.253906 0.89453125 L 57.341797 1.1796875 L 57.605469 1.2226562 L 57.792969 1.1035156 L 57.847656 0.8203125 L 57.623047 0.640625 z M 47.21875 0.66210938 L 46.962891 0.73632812 L 46.869141 0.91992188 L 46.863281 1.1132812 L 47.060547 1.2421875 L 47.322266 1.2558594 L 47.423828 1.0039062 L 47.376953 0.8046875 L 47.21875 0.66210938 z M 10.912109 0.67382812 L 10.740234 0.78710938 L 10.664062 0.98632812 L 10.824219 1.1992188 L 11.029297 1.2226562 L 11.210938 1.1582031 L 11.263672 0.9296875 L 11.183594 0.67773438 L 10.912109 0.67382812 z M 35.673828 0.67578125 L 35.269531 0.76367188 L 35.119141 1.1191406 L 35.382812 1.4003906 L 35.714844 1.34375 L 35.894531 1.0351562 L 35.673828 0.67578125 z M 24.167969 0.72851562 L 24.009766 0.95117188 L 24.007812 1.1542969 L 24.126953 1.3320312 L 24.394531 1.3203125 L 24.527344 1.1640625 L 24.580078 0.97851562 L 24.419922 0.80664062 L 24.167969 0.72851562 z M 16.990234 0.83398438 L 16.585938 0.921875 L 16.433594 1.2773438 L 16.699219 1.5585938 L 17.03125 1.5019531 L 17.210938 1.1933594 L 16.990234 0.83398438 z M 22.302734 0.875 L 22.03125 0.99609375 L 22.019531 1.2636719 L 22.158203 1.4355469 L 22.447266 1.4570312 L 22.599609 1.2128906 L 22.496094 0.98828125 L 22.302734 0.875 z M 59.673828 0.94335938 L 59.447266 1.1347656 L 59.5 1.3105469 L 59.464844 1.5371094 L 59.673828 1.6777344 L 59.902344 1.5722656 L 59.990234 1.3105469 L 59.867188 1.0996094 L 59.673828 0.94335938 z M 8.5253906 0.96484375 L 8.1679688 1.1132812 L 8.1035156 1.4433594 L 8.328125 1.7207031 L 8.7421875 1.6425781 L 8.8046875 1.234375 L 8.5253906 0.96484375 z M 62.603516 1.109375 L 62.337891 1.1289062 L 62.185547 1.2890625 L 62.199219 1.578125 L 62.458984 1.6992188 L 62.667969 1.5703125 L 62.757812 1.3632812 L 62.603516 1.109375 z M 49.216797 1.1503906 L 48.994141 1.2460938 L 48.814453 1.4199219 L 48.978516 1.6679688 L 49.158203 1.6367188 L 49.380859 1.6992188 L 49.544922 1.5078125 L 49.466797 1.2695312 L 49.216797 1.1503906 z M 3.0976562 1.15625 L 2.6777344 1.1777344 L 2.6152344 1.578125 L 2.9804688 1.7753906 L 3.2636719 1.5039062 L 3.0976562 1.15625 z M 13.597656 1.1738281 L 13.490234 1.3261719 L 13.425781 1.5058594 L 13.53125 1.7851562 L 13.783203 1.7773438 L 13.990234 1.5996094 L 14.033203 1.4082031 L 13.876953 1.2851562 L 13.597656 1.1738281 z M 28.470703 1.2949219 L 28.224609 1.34375 L 28.076172 1.5761719 L 28.144531 1.8105469 L 28.292969 2.0097656 L 28.560547 1.8769531 L 28.552734 1.6953125 L 28.640625 1.4824219 L 28.470703 1.2949219 z M 55.8125 1.34375 L 55.646484 1.4160156 L 55.416016 1.4082031 L 55.302734 1.6347656 L 55.433594 1.8476562 L 55.705078 1.9023438 L 55.898438 1.7558594 L 56.03125 1.546875 L 55.8125 1.34375 z M 43.615234 1.5546875 L 43.386719 1.7460938 L 43.439453 1.921875 L 43.404297 2.1484375 L 43.615234 2.2890625 L 43.841797 2.1835938 L 43.929688 1.921875 L 43.806641 1.7109375 L 43.615234 1.5546875 z M 39.908203 1.6347656 L 39.501953 1.7304688 L 39.470703 2.1210938 L 39.826172 2.2714844 L 40.125 1.9765625 L 39.908203 1.6347656 z M 5.5117188 1.7519531 L 5.1933594 2.015625 L 5.2246094 2.4023438 L 5.5898438 2.5292969 L 5.8574219 2.3242188 L 5.8730469 1.9667969 L 5.5117188 1.7519531 z M 33.703125 1.9648438 L 33.597656 2.1171875 L 33.533203 2.296875 L 33.638672 2.5761719 L 33.888672 2.5683594 L 34.097656 2.390625 L 34.140625 2.1992188 L 33.984375 2.0761719 L 33.703125 1.9648438 z M 45.71875 2.1523438 L 45.298828 2.1738281 L 45.236328 2.5742188 L 45.601562 2.7714844 L 45.884766 2.5 L 45.71875 2.1523438 z M 30.230469 2.3417969 L 29.851562 2.4199219 L 29.771484 2.7988281 L 30.005859 3.0390625 L 30.361328 3.0097656 L 30.53125 2.625 L 30.230469 2.3417969 z M 31.890625 2.3574219 L 31.660156 2.5332031 L 31.708984 2.8164062 L 31.933594 2.9140625 L 32.154297 2.8710938 L 32.277344 2.5996094 L 32.109375 2.3925781 L 31.890625 2.3574219 z M 41.669922 2.4355469 L 41.414062 2.5097656 L 41.320312 2.6933594 L 41.314453 2.8867188 L 41.511719 3.015625 L 41.773438 3.0292969 L 41.875 2.7773438 L 41.828125 2.578125 L 41.669922 2.4355469 z M 17.423828 2.6054688 L 17.212891 2.9394531 L 17.458984 3.2363281 L 17.861328 3.1132812 L 17.826172 2.7109375 L 17.423828 2.6054688 z M 19.9375 2.6464844 L 19.572266 2.7695312 L 19.542969 3.1894531 L 19.933594 3.2988281 L 20.173828 2.9609375 L 19.9375 2.6464844 z M 37.400391 2.6679688 L 37.197266 2.6953125 L 37.035156 2.8007812 L 37.041016 3.0351562 L 37.177734 3.2597656 L 37.443359 3.1992188 L 37.580078 3.0488281 L 37.607422 2.8359375 L 37.400391 2.6679688 z M 14.677734 2.6855469 L 14.337891 2.796875 L 14.265625 3.2109375 L 14.625 3.4160156 L 14.974609 3.25 L 14.962891 2.8632812 L 14.677734 2.6855469 z M 11.466797 2.7402344 L 11.224609 3.0644531 L 11.457031 3.4101562 L 11.833984 3.3007812 L 11.847656 2.9160156 L 11.466797 2.7402344 z M 61.095703 2.7441406 L 60.757812 2.8554688 L 60.683594 3.2695312 L 61.042969 3.4726562 L 61.394531 3.3066406 L 61.382812 2.9199219 L 61.095703 2.7441406 z M 1.1445312 2.7675781 L 0.88671875 3.1015625 L 1.1113281 3.4472656 L 1.4980469 3.4628906 L 1.6679688 3.1152344 L 1.4960938 2.8261719 L 1.1445312 2.7675781 z M 25.460938 2.8671875 L 25.302734 3.0878906 L 25.298828 3.2929688 L 25.419922 3.4707031 L 25.685547 3.4589844 L 25.820312 3.3027344 L 25.871094 3.1171875 L 25.712891 2.9433594 L 25.460938 2.8671875 z M 54.035156 2.8710938 L 53.869141 2.9550781 L 53.728516 3.0839844 L 53.691406 3.3808594 L 53.917969 3.4902344 L 54.185547 3.4296875 L 54.3125 3.28125 L 54.230469 3.0996094 L 54.035156 2.8710938 z M 7.5742188 2.9160156 L 7.4101562 3 L 7.2695312 3.1289062 L 7.2324219 3.4257812 L 7.4570312 3.5351562 L 7.7246094 3.4765625 L 7.8515625 3.3261719 L 7.7714844 3.1445312 L 7.5742188 2.9160156 z M 51.496094 2.9492188 L 51.197266 2.9804688 L 51.173828 3.1660156 L 51.199219 3.3535156 L 51.421875 3.5527344 L 51.640625 3.4296875 L 51.742188 3.1757812 L 51.691406 2.9863281 L 51.496094 2.9492188 z M 23.175781 3.0273438 L 22.994141 3.1992188 L 22.955078 3.46875 L 23.048828 3.640625 L 23.248047 3.6308594 L 23.53125 3.5273438 L 23.511719 3.34375 L 23.441406 3.1679688 L 23.175781 3.0273438 z M 63.330078 3.2324219 L 63.158203 3.4082031 L 63.121094 3.6289062 L 63.332031 3.8398438 L 63.583984 3.7558594 L 63.695312 3.5644531 L 63.613281 3.2871094 L 63.330078 3.2324219 z M 27.740234 3.3046875 L 27.537109 3.3320312 L 27.375 3.4375 L 27.378906 3.671875 L 27.515625 3.8964844 L 27.78125 3.8359375 L 27.919922 3.6835938 L 27.947266 3.4726562 L 27.740234 3.3046875 z M 3.5058594 3.4296875 L 3.3476562 3.5429688 L 3.3828125 3.7402344 L 3.5175781 4.0097656 L 3.6992188 3.9648438 L 3.8652344 3.875 L 3.9726562 3.5957031 L 3.7792969 3.4355469 L 3.5058594 3.4296875 z M 58.757812 3.4394531 L 58.533203 3.5820312 L 58.470703 3.7949219 L 58.617188 4.0449219 L 58.904297 4.0292969 L 59.029297 3.8183594 L 59.013672 3.59375 L 58.757812 3.4394531 z M 56.894531 3.4414062 L 56.691406 3.4628906 L 56.529297 3.6035156 L 56.574219 3.8671875 L 56.744141 3.9804688 L 56.935547 4.0097656 L 57.087891 3.8320312 L 57.132812 3.5722656 L 56.894531 3.4414062 z M 9.8554688 3.5839844 L 9.4628906 3.5996094 L 9.3574219 3.9707031 L 9.6875 4.2324219 L 9.9980469 3.9746094 L 9.8554688 3.5839844 z M 47.455078 3.7265625 L 47.248047 3.7753906 L 47.164062 4.0292969 L 47.261719 4.2089844 L 47.417969 4.3242188 L 47.634766 4.2363281 L 47.794922 4.0273438 L 47.646484 3.8007812 L 47.455078 3.7265625 z M 50.089844 3.8613281 L 49.824219 3.8828125 L 49.671875 4.0410156 L 49.683594 4.3300781 L 49.945312 4.4511719 L 50.154297 4.3222656 L 50.244141 4.1171875 L 50.089844 3.8613281 z M 39.173828 3.96875 L 39.015625 4.1894531 L 39.013672 4.3945312 L 39.132812 4.5703125 L 39.400391 4.5585938 L 39.533203 4.4042969 L 39.585938 4.21875 L 39.425781 4.0449219 L 39.173828 3.96875 z M 35.621094 3.9902344 L 35.373047 4.2871094 L 35.46875 4.6074219 L 35.796875 4.75 L 36.126953 4.4882812 L 35.992188 4.0976562 L 35.621094 3.9902344 z M 21.007812 4.0175781 L 20.767578 4.15625 L 20.720703 4.3945312 L 20.759766 4.640625 L 21.056641 4.6464844 L 21.134766 4.4804688 L 21.310547 4.3339844 L 21.246094 4.0898438 L 21.007812 4.0175781 z M 45.054688 4.0292969 L 44.650391 4.1230469 L 44.619141 4.515625 L 44.972656 4.6640625 L 45.273438 4.3691406 L 45.054688 4.0292969 z M 5.8378906 4.3320312 L 5.4726562 4.5078125 L 5.5175781 4.921875 L 5.9023438 5 L 6.09375 4.6660156 L 5.8378906 4.3320312 z M 12.902344 4.3554688 L 12.695312 4.40625 L 12.611328 4.6582031 L 12.708984 4.8398438 L 12.865234 4.953125 L 13.082031 4.8652344 L 13.244141 4.6582031 L 13.09375 4.4316406 L 12.902344 4.3554688 z M 34.076172 4.4550781 L 33.671875 4.5429688 L 33.519531 4.8984375 L 33.785156 5.1796875 L 34.115234 5.1230469 L 34.294922 4.8144531 L 34.076172 4.4550781 z M 42.591797 4.5292969 L 42.230469 4.7441406 L 42.361328 5.1269531 L 42.777344 5.1328125 L 42.902344 4.7597656 L 42.591797 4.5292969 z M 15.537109 4.6308594 L 15.353516 4.8652344 L 15.466797 5.1054688 L 15.669922 5.1914062 L 15.935547 5.0761719 L 15.955078 4.7910156 L 15.759766 4.640625 L 15.537109 4.6308594 z M 31.048828 4.6425781 L 30.732422 4.9082031 L 30.761719 5.2929688 L 31.126953 5.4199219 L 31.394531 5.2148438 L 31.410156 4.859375 L 31.048828 4.6425781 z M 53.232422 4.75 L 52.867188 4.875 L 52.837891 5.2949219 L 53.226562 5.4042969 L 53.46875 5.0644531 L 53.232422 4.75 z M 18.435547 4.8515625 L 18.210938 4.9921875 L 18.148438 5.2050781 L 18.294922 5.4550781 L 18.582031 5.4414062 L 18.707031 5.2285156 L 18.691406 5.0058594 L 18.435547 4.8515625 z M 29.105469 4.9785156 L 28.765625 5.1757812 L 28.84375 5.5527344 L 29.257812 5.6308594 L 29.412109 5.2578125 L 29.105469 4.9785156 z M 2.3789062 5.0507812 L 2.078125 5.2949219 L 2.1816406 5.6679688 L 2.5019531 5.7714844 L 2.8046875 5.5820312 L 2.7753906 5.1621094 L 2.3789062 5.0507812 z M 23.695312 5.1269531 L 23.542969 5.515625 L 23.847656 5.7636719 L 24.173828 5.5566406 L 24.099609 5.140625 L 23.695312 5.1269531 z M 62.373047 5.1542969 L 62.015625 5.3027344 L 61.951172 5.6328125 L 62.175781 5.9101562 L 62.589844 5.8320312 L 62.652344 5.4238281 L 62.373047 5.1542969 z M 59.867188 5.3007812 L 59.634766 5.3769531 L 59.498047 5.5546875 L 59.585938 5.8398438 L 59.849609 5.8828125 L 60.037109 5.765625 L 60.091797 5.4804688 L 59.867188 5.3007812 z M 55.595703 5.328125 L 55.412109 5.5625 L 55.525391 5.8027344 L 55.728516 5.890625 L 55.994141 5.7753906 L 56.015625 5.4882812 L 55.820312 5.3398438 L 55.595703 5.328125 z M 26.398438 5.3476562 L 26.1875 5.4179688 L 26.066406 5.6796875 L 26.240234 5.9082031 L 26.486328 5.890625 L 26.660156 5.75 L 26.642578 5.453125 L 26.398438 5.3476562 z M 40.542969 5.4414062 L 40.384766 5.8242188 L 40.591797 6.1503906 L 40.974609 6.0917969 L 41.115234 5.7871094 L 40.962891 5.4648438 L 40.542969 5.4414062 z M 8.0761719 5.4433594 L 7.8105469 5.4628906 L 7.65625 5.6230469 L 7.6699219 5.9121094 L 7.9316406 6.0332031 L 8.140625 5.9042969 L 8.2304688 5.6992188 L 8.0761719 5.4433594 z M 37.394531 5.4609375 L 37.148438 5.5078125 L 37.001953 5.7421875 L 37.070312 5.9765625 L 37.21875 6.1757812 L 37.486328 6.0429688 L 37.476562 5.859375 L 37.566406 5.6484375 L 37.394531 5.4609375 z M 10.472656 5.4941406 L 10.332031 5.6347656 L 10.1875 5.8984375 L 10.326172 6.0234375 L 10.494141 6.109375 L 10.785156 6.0371094 L 10.808594 5.7890625 L 10.658203 5.5605469 L 10.472656 5.4941406 z M 48.832031 5.75 L 48.585938 5.796875 L 48.4375 6.03125 L 48.505859 6.2636719 L 48.65625 6.4628906 L 48.921875 6.3300781 L 48.914062 6.1484375 L 49.001953 5.9355469 L 48.832031 5.75 z M 31.947266 6.0429688 L 31.691406 6.375 L 31.914062 6.7226562 L 32.302734 6.7382812 L 32.470703 6.390625 L 32.300781 6.0996094 L 31.947266 6.0429688 z M 0.36523438 6.0527344 L 0.12109375 6.1757812 L 0.033203125 6.3496094 L 0.15625 6.5078125 L 0.40039062 6.6835938 L 0.54101562 6.5605469 L 0.64453125 6.4023438 L 0.61132812 6.1054688 L 0.36523438 6.0527344 z M 46.828125 6.0703125 L 46.470703 6.2167969 L 46.40625 6.546875 L 46.630859 6.8242188 L 47.044922 6.7460938 L 47.107422 6.3378906 L 46.828125 6.0703125 z M 5.0917969 6.1230469 L 4.9003906 6.1816406 L 4.6503906 6.3496094 L 4.7148438 6.5234375 L 4.8242188 6.6777344 L 5.1152344 6.75 L 5.2519531 6.5410156 L 5.2246094 6.2675781 L 5.0917969 6.1230469 z M 21.185547 6.1582031 L 21.017578 6.2773438 L 20.921875 6.4453125 L 21.035156 6.6503906 L 21.261719 6.7851562 L 21.46875 6.609375 L 21.519531 6.4121094 L 21.445312 6.2109375 L 21.185547 6.1582031 z M 13.574219 6.4375 L 13.216797 6.5859375 L 13.152344 6.9160156 L 13.376953 7.1933594 L 13.789062 7.1152344 L 13.853516 6.7070312 L 13.574219 6.4375 z M 57.861328 6.453125 L 57.695312 6.5273438 L 57.464844 6.5195312 L 57.351562 6.7441406 L 57.482422 6.9589844 L 57.753906 7.0136719 L 57.947266 6.8671875 L 58.080078 6.65625 L 57.861328 6.453125 z M 51.869141 6.4707031 L 51.664062 6.6171875 L 51.681641 6.8671875 L 51.896484 7.0410156 L 52.136719 7.0019531 L 52.351562 6.8769531 L 52.251953 6.5957031 L 52.070312 6.5839844 L 51.869141 6.4707031 z M 35.001953 6.6328125 L 34.775391 6.8261719 L 34.828125 7 L 34.792969 7.2285156 L 35.001953 7.3691406 L 35.230469 7.2636719 L 35.316406 7 L 35.195312 6.7910156 L 35.001953 6.6328125 z M 19.025391 6.6523438 L 18.779297 6.7734375 L 18.693359 6.9492188 L 18.814453 7.1054688 L 19.060547 7.28125 L 19.201172 7.1582031 L 19.304688 7.0019531 L 19.269531 6.703125 L 19.025391 6.6523438 z M 15.873047 6.6738281 L 15.615234 7.0078125 L 15.839844 7.3535156 L 16.226562 7.3691406 L 16.396484 7.0214844 L 16.224609 6.7324219 L 15.873047 6.6738281 z M 44.287109 6.6757812 L 44.126953 6.7910156 L 44.162109 6.9863281 L 44.298828 7.2558594 L 44.480469 7.2128906 L 44.646484 7.1210938 L 44.751953 6.8417969 L 44.560547 6.6816406 L 44.287109 6.6757812 z M 60.839844 7.0488281 L 60.609375 7.2246094 L 60.660156 7.5058594 L 60.884766 7.6054688 L 61.105469 7.5625 L 61.226562 7.2910156 L 61.058594 7.0839844 L 60.839844 7.0488281 z M 37.367188 7.09375 L 37.162109 7.2949219 L 37.208984 7.5371094 L 37.369141 7.6933594 L 37.662109 7.640625 L 37.738281 7.3847656 L 37.642578 7.1835938 L 37.367188 7.09375 z M 8.0292969 7.2402344 L 7.8652344 7.3261719 L 7.7246094 7.453125 L 7.6875 7.75 L 7.9121094 7.8613281 L 8.1796875 7.8007812 L 8.3066406 7.6503906 L 8.2265625 7.46875 L 8.0292969 7.2402344 z M 29.048828 7.25 L 28.828125 7.609375 L 29.121094 7.8867188 L 29.492188 7.6992188 L 29.429688 7.3105469 L 29.048828 7.25 z M 11.488281 7.2734375 L 11.179688 7.4082031 L 11.080078 7.75 L 11.378906 8.046875 L 11.75 7.8652344 L 11.8125 7.4824219 L 11.488281 7.2734375 z M 42.335938 7.3417969 L 42.125 7.4121094 L 42.003906 7.6738281 L 42.177734 7.9023438 L 42.423828 7.8847656 L 42.597656 7.7441406 L 42.580078 7.4472656 L 42.335938 7.3417969 z M 24.232422 7.4375 L 23.837891 7.453125 L 23.732422 7.8242188 L 24.0625 8.0859375 L 24.373047 7.828125 L 24.232422 7.4375 z M 54.5 7.46875 L 54.341797 7.6894531 L 54.337891 7.8945312 L 54.458984 8.0703125 L 54.724609 8.0585938 L 54.859375 7.9042969 L 54.910156 7.7167969 L 54.751953 7.5449219 L 54.5 7.46875 z M 3.5546875 7.4863281 L 3.3515625 7.5136719 L 3.1894531 7.6171875 L 3.1933594 7.8515625 L 3.3320312 8.0761719 L 3.5957031 8.0175781 L 3.734375 7.8652344 L 3.7617188 7.6542969 L 3.5546875 7.4863281 z M 39.767578 7.4980469 L 39.541016 7.640625 L 39.478516 7.8515625 L 39.625 8.1035156 L 39.912109 8.0878906 L 40.037109 7.8769531 L 40.021484 7.6523438 L 39.767578 7.4980469 z M 27.115234 7.7050781 L 26.947266 7.7773438 L 26.716797 7.7714844 L 26.603516 7.9960938 L 26.734375 8.2089844 L 27.005859 8.265625 L 27.199219 8.1171875 L 27.333984 7.9082031 L 27.115234 7.7050781 z M 50.121094 7.9121094 L 49.863281 8.2460938 L 50.087891 8.5917969 L 50.474609 8.6074219 L 50.644531 8.2597656 L 50.472656 7.9707031 L 50.121094 7.9121094 z M 32.400391 8.1171875 L 32.152344 8.4140625 L 32.248047 8.7363281 L 32.576172 8.8789062 L 32.90625 8.6171875 L 32.771484 8.2265625 L 32.400391 8.1171875 z M 48.359375 8.1464844 L 47.953125 8.2421875 L 47.921875 8.6328125 L 48.277344 8.7832031 L 48.576172 8.4882812 L 48.359375 8.1464844 z M 63.382812 8.1777344 L 62.976562 8.2714844 L 62.945312 8.6640625 L 63.300781 8.8125 L 63.599609 8.5175781 L 63.382812 8.1777344 z M 5.640625 8.2128906 L 5.3261719 8.4863281 L 5.4804688 8.8476562 L 5.8632812 8.8144531 L 5.9921875 8.4140625 L 5.640625 8.2128906 z M 22.074219 8.3105469 L 21.830078 8.4335938 L 21.742188 8.609375 L 21.865234 8.765625 L 22.109375 8.9414062 L 22.25 8.8183594 L 22.355469 8.6621094 L 22.320312 8.3632812 L 22.074219 8.3105469 z M 52.341797 8.3730469 L 52.173828 8.4902344 L 52.080078 8.6601562 L 52.193359 8.8652344 L 52.417969 9 L 52.625 8.8242188 L 52.677734 8.625 L 52.603516 8.4257812 L 52.341797 8.3730469 z M 14.390625 8.4609375 L 14.142578 8.7167969 L 14.269531 9.1171875 L 14.683594 9.1308594 L 14.916016 8.8203125 L 14.726562 8.484375 L 14.390625 8.4609375 z M 59.800781 8.5332031 L 59.607422 8.5507812 L 59.501953 8.7597656 L 59.519531 9.0234375 L 59.783203 9.09375 L 59.974609 9.0234375 L 60.097656 8.8476562 L 59.992188 8.6035156 L 59.800781 8.5332031 z M 45.517578 8.5527344 L 45.298828 8.9101562 L 45.591797 9.1894531 L 45.960938 9.0019531 L 45.898438 8.6132812 L 45.517578 8.5527344 z M 1.46875 8.625 L 1.3535156 8.7675781 L 1.1464844 8.8671875 L 1.1523438 9.1191406 L 1.3671875 9.2480469 L 1.6328125 9.1699219 L 1.7363281 8.9492188 L 1.7558594 8.7011719 L 1.46875 8.625 z M 56.4375 8.6738281 L 56.246094 8.7324219 L 55.996094 8.9003906 L 56.060547 9.0742188 L 56.169922 9.2285156 L 56.460938 9.3007812 L 56.597656 9.0898438 L 56.570312 8.8164062 L 56.4375 8.6738281 z M 16.800781 8.7480469 L 16.417969 8.9238281 L 16.455078 9.3359375 L 16.791016 9.5292969 L 17.101562 9.3007812 L 17.085938 8.9648438 L 16.800781 8.7480469 z M 19.808594 8.9375 L 19.695312 9.0800781 L 19.488281 9.1796875 L 19.492188 9.4316406 L 19.708984 9.5605469 L 19.974609 9.4824219 L 20.078125 9.2617188 L 20.097656 9.0136719 L 19.808594 8.9375 z M 10.087891 8.9492188 L 9.6953125 8.9667969 L 9.5898438 9.3359375 L 9.9199219 9.5976562 L 10.230469 9.3398438 L 10.087891 8.9492188 z M 30.314453 8.9765625 L 29.908203 9.0703125 L 29.876953 9.4609375 L 30.232422 9.6113281 L 30.53125 9.3164062 L 30.314453 8.9765625 z M 24.654297 9.0742188 L 24.462891 9.2578125 L 24.464844 9.4628906 L 24.548828 9.6367188 L 24.783203 9.6601562 L 25.021484 9.5507812 L 24.994141 9.28125 L 24.861328 9.125 L 24.654297 9.0742188 z M 35.738281 9.2753906 L 35.535156 9.296875 L 35.373047 9.4375 L 35.416016 9.7011719 L 35.587891 9.8164062 L 35.777344 9.8457031 L 35.931641 9.6660156 L 35.976562 9.40625 L 35.738281 9.2753906 z M 41.943359 9.2792969 L 41.537109 9.3730469 L 41.505859 9.765625 L 41.861328 9.9160156 L 42.160156 9.6191406 L 41.943359 9.2792969 z M 58.072266 9.421875 L 57.900391 9.5976562 L 57.863281 9.8183594 L 58.074219 10.029297 L 58.326172 9.9453125 L 58.4375 9.7539062 L 58.355469 9.4746094 L 58.072266 9.421875 z M 37.929688 9.53125 L 37.816406 9.6738281 L 37.609375 9.7734375 L 37.613281 10.025391 L 37.828125 10.154297 L 38.09375 10.076172 L 38.197266 9.8554688 L 38.216797 9.6074219 L 37.929688 9.53125 z M 11.927734 9.6523438 L 11.716797 9.9863281 L 11.962891 10.283203 L 12.365234 10.160156 L 12.330078 9.7578125 L 11.927734 9.6523438 z M 27.742188 9.7441406 L 27.380859 9.9589844 L 27.511719 10.341797 L 27.927734 10.347656 L 28.052734 9.9746094 L 27.742188 9.7441406 z M 33.988281 9.8007812 L 33.746094 9.8691406 L 33.585938 10.091797 L 33.589844 10.287109 L 33.771484 10.369141 L 34.070312 10.410156 L 34.136719 10.236328 L 34.15625 10.048828 L 33.988281 9.8007812 z M 7.9707031 9.9023438 L 7.7050781 10.181641 L 7.875 10.566406 L 8.2714844 10.482422 L 8.3261719 10.070312 L 7.9707031 9.9023438 z M 43.958984 9.9550781 L 43.710938 10.210938 L 43.839844 10.611328 L 44.251953 10.625 L 44.484375 10.314453 L 44.294922 9.9785156 L 43.958984 9.9550781 z M 4.1621094 10.027344 L 3.8046875 10.175781 L 3.7421875 10.505859 L 3.9667969 10.783203 L 4.3789062 10.705078 L 4.4414062 10.296875 L 4.1621094 10.027344 z M 47.0625 10.027344 L 46.904297 10.408203 L 47.113281 10.736328 L 47.494141 10.677734 L 47.634766 10.373047 L 47.484375 10.048828 L 47.0625 10.027344 z M 62.267578 10.123047 L 62.078125 10.181641 L 61.826172 10.349609 L 61.892578 10.523438 L 62.001953 10.677734 L 62.292969 10.75 L 62.427734 10.539062 L 62.400391 10.267578 L 62.267578 10.123047 z M 49.779297 10.242188 L 49.417969 10.458984 L 49.546875 10.841797 L 49.964844 10.845703 L 50.087891 10.472656 L 49.779297 10.242188 z M 39.822266 10.291016 L 39.638672 10.339844 L 39.466797 10.585938 L 39.617188 10.787109 L 39.880859 10.857422 L 40.0625 10.785156 L 40.074219 10.585938 L 40.007812 10.291016 L 39.822266 10.291016 z M 22.451172 10.341797 L 22.150391 10.373047 L 22.126953 10.558594 L 22.154297 10.746094 L 22.376953 10.945312 L 22.595703 10.822266 L 22.697266 10.568359 L 22.646484 10.378906 L 22.451172 10.341797 z M 17.613281 10.349609 L 17.455078 10.730469 L 17.662109 11.058594 L 18.044922 11 L 18.185547 10.695312 L 18.033203 10.371094 L 17.613281 10.349609 z M 55.664062 10.408203 L 55.425781 10.476562 L 55.455078 10.773438 L 55.628906 10.830078 L 55.796875 10.988281 L 56.03125 10.894531 L 56.074219 10.648438 L 55.908203 10.425781 L 55.664062 10.408203 z M 53.632812 10.421875 L 53.332031 10.667969 L 53.435547 11.039062 L 53.755859 11.142578 L 54.058594 10.953125 L 54.03125 10.533203 L 53.632812 10.421875 z M 14.169922 10.564453 L 13.964844 10.710938 L 13.982422 10.960938 L 14.197266 11.136719 L 14.4375 11.095703 L 14.652344 10.970703 L 14.552734 10.689453 L 14.371094 10.677734 L 14.169922 10.564453 z M 2.0625 10.728516 L 1.6796875 10.902344 L 1.7167969 11.314453 L 2.0527344 11.507812 L 2.3632812 11.279297 L 2.3457031 10.943359 L 2.0625 10.728516 z M 6.2910156 10.775391 L 6.015625 10.857422 L 5.9453125 11.09375 L 6.0136719 11.306641 L 6.2988281 11.396484 L 6.484375 11.203125 L 6.4921875 10.982422 L 6.2910156 10.775391 z M 25.515625 10.839844 L 25.277344 10.978516 L 25.228516 11.216797 L 25.269531 11.462891 L 25.566406 11.46875 L 25.644531 11.302734 L 25.820312 11.15625 L 25.755859 10.912109 L 25.515625 10.839844 z M 60.751953 11.009766 L 60.544922 11.060547 L 60.460938 11.3125 L 60.558594 11.492188 L 60.714844 11.607422 L 60.931641 11.519531 L 61.09375 11.3125 L 60.943359 11.085938 L 60.751953 11.009766 z M 31.724609 11.046875 L 31.53125 11.232422 L 31.535156 11.4375 L 31.619141 11.611328 L 31.853516 11.634766 L 32.091797 11.525391 L 32.064453 11.255859 L 31.931641 11.099609 L 31.724609 11.046875 z M 63.820312 11.0625 L 63.648438 11.238281 L 63.611328 11.458984 L 63.822266 11.669922 L 64 11.611328 L 64 11.097656 L 63.820312 11.0625 z M 0 11.097656 L 0 11.611328 L 0.07421875 11.587891 L 0.18554688 11.394531 L 0.10351562 11.117188 L 0 11.097656 z M 29.880859 11.107422 L 29.542969 11.21875 L 29.46875 11.632812 L 29.828125 11.835938 L 30.177734 11.669922 L 30.167969 11.283203 L 29.880859 11.107422 z M 51.257812 11.3125 L 51.048828 11.644531 L 51.292969 11.943359 L 51.695312 11.820312 L 51.660156 11.417969 L 51.257812 11.3125 z M 9.9863281 11.546875 L 9.7207031 11.824219 L 9.890625 12.208984 L 10.285156 12.126953 L 10.341797 11.714844 L 9.9863281 11.546875 z M 19.859375 11.572266 L 19.701172 11.6875 L 19.736328 11.882812 L 19.873047 12.152344 L 20.052734 12.109375 L 20.21875 12.017578 L 20.326172 11.738281 L 20.134766 11.578125 L 19.859375 11.572266 z M 58.371094 11.601562 L 58.212891 11.822266 L 58.210938 12.027344 L 58.330078 12.205078 L 58.597656 12.193359 L 58.730469 12.037109 L 58.783203 11.851562 L 58.623047 11.679688 L 58.371094 11.601562 z M 38.242188 11.613281 L 37.951172 11.679688 L 37.917969 11.857422 L 37.78125 12.042969 L 37.902344 12.265625 L 38.152344 12.277344 L 38.351562 12.085938 L 38.339844 11.841797 L 38.242188 11.613281 z M 43.238281 11.796875 L 42.972656 12.076172 L 43.142578 12.460938 L 43.537109 12.376953 L 43.59375 11.964844 L 43.238281 11.796875 z M 45.853516 11.830078 L 45.626953 11.970703 L 45.564453 12.183594 L 45.710938 12.433594 L 45.998047 12.419922 L 46.123047 12.208984 L 46.107422 11.984375 L 45.853516 11.830078 z M 22.046875 12.001953 L 21.841797 12.095703 L 21.789062 12.388672 L 22.001953 12.550781 L 22.222656 12.533203 L 22.404297 12.306641 L 22.289062 12.044922 L 22.046875 12.001953 z M 48.029297 12.019531 L 47.871094 12.402344 L 48.078125 12.728516 L 48.460938 12.671875 L 48.601562 12.365234 L 48.449219 12.042969 L 48.029297 12.019531 z M 35.878906 12.125 L 35.611328 12.404297 L 35.78125 12.789062 L 36.177734 12.705078 L 36.232422 12.292969 L 35.878906 12.125 z M 17.611328 12.146484 L 17.388672 12.244141 L 17.208984 12.416016 L 17.373047 12.666016 L 17.552734 12.634766 L 17.773438 12.695312 L 17.9375 12.503906 L 17.861328 12.265625 L 17.611328 12.146484 z M 14.699219 12.212891 L 14.503906 12.369141 L 14.482422 12.644531 L 14.650391 12.820312 L 14.875 12.925781 L 15.050781 12.685547 L 14.957031 12.527344 L 14.9375 12.298828 L 14.699219 12.212891 z M 33.716797 12.226562 L 33.359375 12.375 L 33.294922 12.705078 L 33.519531 12.982422 L 33.933594 12.904297 L 33.996094 12.496094 L 33.716797 12.226562 z M 12.248047 12.257812 L 11.982422 12.396484 L 12.019531 12.644531 L 12.220703 12.830078 L 12.416016 12.849609 L 12.519531 12.679688 L 12.595703 12.386719 L 12.431641 12.300781 L 12.248047 12.257812 z M 41.396484 12.283203 L 41.119141 12.292969 L 40.966797 12.482422 L 40.886719 12.71875 L 41.148438 12.863281 L 41.292969 12.751953 L 41.519531 12.703125 L 41.576172 12.457031 L 41.396484 12.283203 z M 56.306641 12.464844 L 55.943359 12.640625 L 55.986328 13.054688 L 56.373047 13.132812 L 56.564453 12.798828 L 56.306641 12.464844 z M 5.4921875 12.511719 L 5.1855469 12.646484 L 5.0839844 12.988281 L 5.3847656 13.285156 L 5.7558594 13.103516 L 5.8183594 12.720703 L 5.4921875 12.511719 z M 8.0957031 12.578125 L 7.9296875 12.662109 L 7.7890625 12.791016 L 7.7519531 13.087891 L 7.9785156 13.197266 L 8.2441406 13.136719 L 8.3730469 12.988281 L 8.2910156 12.806641 L 8.0957031 12.578125 z M 52.972656 12.8125 L 52.769531 12.833984 L 52.607422 12.974609 L 52.650391 13.238281 L 52.820312 13.351562 L 53.011719 13.380859 L 53.164062 13.203125 L 53.210938 12.943359 L 52.972656 12.8125 z M 28.4375 12.886719 L 28.228516 13.150391 L 28.298828 13.5 L 28.701172 13.623047 L 28.945312 13.291016 L 28.822266 12.921875 L 28.4375 12.886719 z M 25.939453 12.896484 L 25.78125 13.011719 L 25.816406 13.207031 L 25.951172 13.476562 L 26.132812 13.431641 L 26.298828 13.341797 L 26.40625 13.0625 L 26.212891 12.902344 L 25.939453 12.896484 z M 1.4101562 12.970703 L 1.1757812 13.046875 L 1.0390625 13.224609 L 1.1289062 13.509766 L 1.390625 13.552734 L 1.578125 13.433594 L 1.6347656 13.150391 L 1.4101562 12.970703 z M 60.822266 13.121094 L 60.613281 13.382812 L 60.683594 13.732422 L 61.085938 13.855469 L 61.330078 13.523438 L 61.207031 13.15625 L 60.822266 13.121094 z M 23.865234 13.128906 L 23.59375 13.25 L 23.582031 13.515625 L 23.722656 13.6875 L 24.011719 13.708984 L 24.162109 13.464844 L 24.058594 13.242188 L 23.865234 13.128906 z M 39.539062 13.345703 L 39.3125 13.488281 L 39.25 13.701172 L 39.396484 13.951172 L 39.683594 13.935547 L 39.808594 13.724609 L 39.792969 13.5 L 39.539062 13.345703 z M 3.3554688 13.480469 L 3.0820312 13.601562 L 3.0703125 13.867188 L 3.2109375 14.039062 L 3.5 14.060547 L 3.6503906 13.816406 L 3.5488281 13.59375 L 3.3554688 13.480469 z M 30.458984 13.617188 L 30.300781 14 L 30.507812 14.326172 L 30.890625 14.267578 L 31.03125 13.962891 L 30.878906 13.640625 L 30.458984 13.617188 z M 49.431641 13.634766 L 49.074219 13.783203 L 49.009766 14.113281 L 49.234375 14.390625 L 49.648438 14.3125 L 49.710938 13.904297 L 49.431641 13.634766 z M 44.488281 13.804688 L 44.316406 13.980469 L 44.279297 14.201172 L 44.488281 14.412109 L 44.742188 14.328125 L 44.853516 14.136719 L 44.771484 13.859375 L 44.488281 13.804688 z M 21.169922 13.810547 L 20.765625 13.896484 L 20.613281 14.253906 L 20.878906 14.535156 L 21.208984 14.476562 L 21.388672 14.167969 L 21.169922 13.810547 z M 57.814453 13.958984 L 57.576172 14.027344 L 57.605469 14.324219 L 57.779297 14.378906 L 57.945312 14.537109 L 58.181641 14.445312 L 58.224609 14.197266 L 58.056641 13.976562 L 57.814453 13.958984 z M 62.974609 13.992188 L 62.779297 14.019531 L 62.720703 14.208984 L 62.714844 14.509766 L 62.896484 14.556641 L 63.085938 14.552734 L 63.310547 14.355469 L 63.212891 14.123047 L 62.974609 13.992188 z M 10.931641 13.998047 L 10.689453 14.066406 L 10.529297 14.289062 L 10.533203 14.484375 L 10.714844 14.566406 L 11.013672 14.607422 L 11.080078 14.433594 L 11.099609 14.246094 L 10.931641 13.998047 z M 33.080078 14.052734 L 32.779297 14.296875 L 32.882812 14.669922 L 33.203125 14.773438 L 33.505859 14.583984 L 33.476562 14.164062 L 33.080078 14.052734 z M 51.027344 14.144531 L 50.769531 14.478516 L 50.994141 14.824219 L 51.380859 14.839844 L 51.550781 14.492188 L 51.378906 14.203125 L 51.027344 14.144531 z M 54.048828 14.205078 L 53.828125 14.564453 L 54.121094 14.841797 L 54.492188 14.654297 L 54.429688 14.265625 L 54.048828 14.205078 z M 16.017578 14.214844 L 15.71875 14.246094 L 15.695312 14.429688 L 15.720703 14.617188 L 15.943359 14.816406 L 16.162109 14.693359 L 16.263672 14.439453 L 16.212891 14.25 L 16.017578 14.214844 z M 46.791016 14.244141 L 46.632812 14.464844 L 46.628906 14.669922 L 46.75 14.845703 L 47.015625 14.833984 L 47.150391 14.679688 L 47.201172 14.492188 L 47.042969 14.320312 L 46.791016 14.244141 z M 37.498047 14.285156 L 37.117188 14.460938 L 37.152344 14.871094 L 37.375 15 L 37.578125 15 L 37.800781 14.837891 L 37.783203 14.501953 L 37.498047 14.285156 z M 13.048828 14.371094 L 12.792969 14.445312 L 12.701172 14.628906 L 12.695312 14.822266 L 12.890625 14.951172 L 13.154297 14.964844 L 13.255859 14.712891 L 13.208984 14.513672 L 13.048828 14.371094 z M 18.962891 14.388672 L 18.671875 14.453125 L 18.636719 14.632812 L 18.5 14.818359 L 18.599609 15 L 18.925781 15 L 19.070312 14.859375 L 19.060547 14.617188 L 18.962891 14.388672 z M 35.705078 14.755859 L 35.367188 14.869141 L 35.34375 15 L 35.992188 15 L 35.990234 14.933594 L 35.705078 14.755859 z M 8.7441406 14.882812 L 8.5390625 14.904297 L 8.4296875 15 L 8.9570312 15 L 8.7441406 14.882812 z M 4.8671875 14.927734 L 4.6738281 14.955078 L 4.6601562 15 L 5 15 L 4.8671875 14.927734 z "
     style="fill:#565a28" />
  <desc
     id="desc2943">Created with Snap</desc>
</svg>
